<?xml version="1.0" encoding="UTF-8" standalone="no"?>
<svg
   xmlns:dc="http://purl.org/dc/elements/1.1/"
   xmlns:cc="http://creativecommons.org/ns#"
   xmlns:rdf="http://www.w3.org/1999/02/22-rdf-syntax-ns#"
   xmlns:svg="http://www.w3.org/2000/svg"
   xmlns="http://www.w3.org/2000/svg"
   xmlns:sodipodi="http://sodipodi.sourceforge.net/DTD/sodipodi-0.dtd"
   xmlns:inkscape="http://www.inkscape.org/namespaces/inkscape"
   height="253.70866"
   width="424.29568"
   viewBox="0 0 424.29568 253.70867"
   version="1.1"
   id="svg220"
   sodipodi:docname="breeds_grey.svg"
   inkscape:version="1.0 (6e3e5246a0, 2020-05-07)">
  <metadata
     id="metadata224">
    <rdf:RDF>
      <cc:Work
         rdf:about="">
        <dc:format>image/svg+xml</dc:format>
        <dc:type
           rdf:resource="http://purl.org/dc/dcmitype/StillImage" />
        <dc:title></dc:title>
      </cc:Work>
    </rdf:RDF>
  </metadata>
  <sodipodi:namedview
     fit-margin-bottom="0"
     fit-margin-right="0"
     fit-margin-left="0"
     fit-margin-top="0"
     inkscape:document-rotation="0"
     pagecolor="#ffffff"
     bordercolor="#666666"
     borderopacity="1"
     objecttolerance="10"
     gridtolerance="10"
     guidetolerance="10"
     inkscape:pageopacity="0"
     inkscape:pageshadow="2"
     inkscape:window-width="1307"
     inkscape:window-height="713"
     id="namedview222"
     showgrid="false"
     inkscape:zoom="2.7989025"
     inkscape:cx="55.068592"
     inkscape:cy="137.88207"
     inkscape:window-x="59"
     inkscape:window-y="27"
     inkscape:window-maximized="1"
     inkscape:current-layer="svg220" />
  <defs
     id="defs4">
    <style
       type="text/css"
       id="style2"><![CDATA[
    line, polyline, polygon, path, rect, circle {
      fill: none;
      stroke: #000000;
      stroke-linecap: round;
      stroke-linejoin: round;
      stroke-miterlimit: 10.00;
    }
  ]]></style>
  </defs>
  <defs
     id="defs11">
    <clipPath
       id="cpMzcuNjh8NDQ4LjA2fDI1Mi41OHw1LjQ4">
      <rect
         x="37.68"
         y="5.48"
         width="410.38"
         height="247.10001"
         id="rect8" />
    </clipPath>
  </defs>
  <polyline
     transform="translate(-23.764316,-5.48)"
     points="37.68,241.35 448.06,241.35 "
     style="stroke:#373737;stroke-width:0.5;stroke-linecap:butt;stroke-miterlimit:10;stroke-dasharray:none;stroke-opacity:1"
     clip-path="url(#cpMzcuNjh8NDQ4LjA2fDI1Mi41OHw1LjQ4)"
     id="polyline49" />
  <polyline
     transform="translate(-23.764316,-5.48)"
     points="37.68,185.19 448.06,185.19 "
     style="stroke:#373737;stroke-width:0.5;stroke-linecap:butt;stroke-miterlimit:10;stroke-dasharray:none;stroke-opacity:1"
     clip-path="url(#cpMzcuNjh8NDQ4LjA2fDI1Mi41OHw1LjQ4)"
     id="polyline51" />
  <polyline
     transform="translate(-23.764316,-5.48)"
     points="37.68,129.03 448.06,129.03 "
     style="stroke:#373737;stroke-width:0.5;stroke-linecap:butt;stroke-miterlimit:10;stroke-dasharray:none;stroke-opacity:1"
     clip-path="url(#cpMzcuNjh8NDQ4LjA2fDI1Mi41OHw1LjQ4)"
     id="polyline53" />
  <polyline
     transform="translate(-23.764316,-5.48)"
     points="37.68,72.87 448.06,72.87 "
     style="stroke:#373737;stroke-width:0.5;stroke-linecap:butt;stroke-miterlimit:10;stroke-dasharray:none;stroke-opacity:1"
     clip-path="url(#cpMzcuNjh8NDQ4LjA2fDI1Mi41OHw1LjQ4)"
     id="polyline55" />
  <polyline
     transform="translate(-23.764316,-5.48)"
     points="37.68,16.71 448.06,16.71 "
     style="stroke:#373737;stroke-width:0.5;stroke-linecap:butt;stroke-miterlimit:10;stroke-dasharray:none;stroke-opacity:1"
     clip-path="url(#cpMzcuNjh8NDQ4LjA2fDI1Mi41OHw1LjQ4)"
     id="polyline57" />
  <polyline
     transform="translate(-23.764316,-5.48)"
     points="56.34,252.58 56.34,5.48 "
     style="stroke:#373737;stroke-width:0.5;stroke-linecap:butt;stroke-miterlimit:10;stroke-dasharray:none;stroke-opacity:1"
     clip-path="url(#cpMzcuNjh8NDQ4LjA2fDI1Mi41OHw1LjQ4)"
     id="polyline59" />
  <polyline
     transform="translate(-23.764316,-5.48)"
     points="86.86,252.58 86.86,5.48 "
     style="stroke:#373737;stroke-width:0.5;stroke-linecap:butt;stroke-miterlimit:10;stroke-dasharray:none;stroke-opacity:1"
     clip-path="url(#cpMzcuNjh8NDQ4LjA2fDI1Mi41OHw1LjQ4)"
     id="polyline61" />
  <polyline
     transform="translate(-23.764316,-5.48)"
     points="117.29,252.58 117.29,5.48 "
     style="stroke:#373737;stroke-width:0.5;stroke-linecap:butt;stroke-miterlimit:10;stroke-dasharray:none;stroke-opacity:1"
     clip-path="url(#cpMzcuNjh8NDQ4LjA2fDI1Mi41OHw1LjQ4)"
     id="polyline63" />
  <polyline
     transform="translate(-23.764316,-5.48)"
     points="147.73,252.58 147.73,5.48 "
     style="stroke:#373737;stroke-width:0.5;stroke-linecap:butt;stroke-miterlimit:10;stroke-dasharray:none;stroke-opacity:1"
     clip-path="url(#cpMzcuNjh8NDQ4LjA2fDI1Mi41OHw1LjQ4)"
     id="polyline65" />
  <polyline
     transform="translate(-23.764316,-5.48)"
     points="178.17,252.58 178.17,5.48 "
     style="stroke:#373737;stroke-width:0.5;stroke-linecap:butt;stroke-miterlimit:10;stroke-dasharray:none;stroke-opacity:1"
     clip-path="url(#cpMzcuNjh8NDQ4LjA2fDI1Mi41OHw1LjQ4)"
     id="polyline67" />
  <polyline
     transform="translate(-23.764316,-5.48)"
     points="208.69,252.58 208.69,5.48 "
     style="stroke:#373737;stroke-width:0.5;stroke-linecap:butt;stroke-miterlimit:10;stroke-dasharray:none;stroke-opacity:1"
     clip-path="url(#cpMzcuNjh8NDQ4LjA2fDI1Mi41OHw1LjQ4)"
     id="polyline69" />
  <polyline
     transform="translate(-23.764316,-5.48)"
     points="239.12,252.58 239.12,5.48 "
     style="stroke:#373737;stroke-width:0.5;stroke-linecap:butt;stroke-miterlimit:10;stroke-dasharray:none;stroke-opacity:1"
     clip-path="url(#cpMzcuNjh8NDQ4LjA2fDI1Mi41OHw1LjQ4)"
     id="polyline71" />
  <polyline
     transform="translate(-23.764316,-5.48)"
     points="269.56,252.58 269.56,5.48 "
     style="stroke:#373737;stroke-width:0.5;stroke-linecap:butt;stroke-miterlimit:10;stroke-dasharray:none;stroke-opacity:1"
     clip-path="url(#cpMzcuNjh8NDQ4LjA2fDI1Mi41OHw1LjQ4)"
     id="polyline73" />
  <polyline
     transform="translate(-23.764316,-5.48)"
     points="299.99,252.58 299.99,5.48 "
     style="stroke:#373737;stroke-width:0.5;stroke-linecap:butt;stroke-miterlimit:10;stroke-dasharray:none;stroke-opacity:1"
     clip-path="url(#cpMzcuNjh8NDQ4LjA2fDI1Mi41OHw1LjQ4)"
     id="polyline75" />
  <polyline
     transform="translate(-23.764316,-5.48)"
     points="330.51,252.58 330.51,5.48 "
     style="stroke:#373737;stroke-width:0.5;stroke-linecap:butt;stroke-miterlimit:10;stroke-dasharray:none;stroke-opacity:1"
     clip-path="url(#cpMzcuNjh8NDQ4LjA2fDI1Mi41OHw1LjQ4)"
     id="polyline77" />
  <polyline
     transform="translate(-23.764316,-5.48)"
     points="360.95,252.58 360.95,5.48 "
     style="stroke:#373737;stroke-width:0.5;stroke-linecap:butt;stroke-miterlimit:10;stroke-dasharray:none;stroke-opacity:1"
     clip-path="url(#cpMzcuNjh8NDQ4LjA2fDI1Mi41OHw1LjQ4)"
     id="polyline79" />
  <polyline
     transform="translate(-23.764316,-5.48)"
     points="391.39,252.58 391.39,5.48 "
     style="stroke:#373737;stroke-width:0.5;stroke-linecap:butt;stroke-miterlimit:10;stroke-dasharray:none;stroke-opacity:1"
     clip-path="url(#cpMzcuNjh8NDQ4LjA2fDI1Mi41OHw1LjQ4)"
     id="polyline81" />
  <polyline
     transform="translate(-23.764316,-5.48)"
     points="421.82,252.58 421.82,5.48 "
     style="stroke:#373737;stroke-width:0.5;stroke-linecap:butt;stroke-miterlimit:10;stroke-dasharray:none;stroke-opacity:1"
     clip-path="url(#cpMzcuNjh8NDQ4LjA2fDI1Mi41OHw1LjQ4)"
     id="polyline83" />
  <g
     transform="translate(-23.764316,-5.48)"
     id="g_breeds">
    <polyline
       id="polyline85"
       clip-path="url(#cpMzcuNjh8NDQ4LjA2fDI1Mi41OHw1LjQ4)"
       style="stroke:#525252;stroke-width:0.64;stroke-linecap:butt;stroke-opacity:0.4"
       points="56.34,216.18 58.92,229.73 61.34,218.11 63.93,231.67 66.43,225.86 69.01,229.73 71.51,241.35 74.10,218.11 76.68,231.67 79.19,225.86 81.77,225.86 84.27,229.73 86.86,216.18 89.44,241.35 91.78,218.11 94.36,225.86 96.86,225.86 99.45,241.35 101.95,202.62 104.53,196.81 107.12,210.37 109.62,223.92 112.21,198.75 114.71,218.11 117.29,227.80 119.88,231.67 122.21,227.80 124.80,216.18 127.30,210.37 129.88,214.24 132.39,229.73 134.97,221.99 137.56,231.67 140.06,204.56 142.64,204.56 145.14,225.86 147.73,221.99 150.31,221.99 152.65,221.99 155.23,221.99 157.74,223.92 160.32,221.99 162.82,218.11 165.41,216.18 167.99,223.92 170.49,218.11 173.08,214.24 175.58,218.11 178.17,212.30 180.75,216.18 183.17,214.24 185.75,210.37 188.26,212.30 190.84,214.24 193.34,212.30 195.93,202.62 198.51,192.94 201.01,202.62 203.60,202.62 206.10,210.37 208.69,212.30 211.27,216.18 213.60,208.43 216.19,212.30 218.69,214.24 221.28,212.30 223.78,198.75 226.36,192.94 228.95,210.37 231.45,194.87 234.03,204.56 236.54,212.30 239.12,210.37 241.71,204.56 244.04,210.37 246.63,204.56 249.13,198.75 251.71,198.75 254.21,192.94 256.80,202.62 259.38,204.56 261.89,194.87 264.47,198.75 266.97,198.75 269.56,181.32 272.14,202.62 274.48,187.13 277.06,187.13 279.56,187.13 282.15,192.94 284.65,179.38 287.24,187.13 289.82,181.32 292.32,192.94 294.91,189.06 297.41,194.87 299.99,187.13 302.58,181.32 305.00,123.22 307.58,161.95 310.08,161.95 312.67,173.57 315.17,171.64 317.76,181.32 320.34,146.46 322.84,107.73 325.43,98.05 327.93,88.36 330.51,90.30 333.10,101.92 335.43,111.60 338.02,117.41 340.52,117.41 343.10,119.35 345.61,101.92 348.19,117.41 350.78,130.97 353.28,123.22 355.86,125.16 358.36,101.92 360.95,109.67 363.53,130.97 365.87,132.90 368.45,140.65 370.96,138.71 373.54,138.71 376.04,132.90 378.63,132.90 381.21,150.33 383.71,138.71 386.30,144.52 388.80,132.90 391.39,140.65 393.97,140.65 396.31,152.27 398.89,156.14 401.39,154.21 403.98,156.14 406.48,146.46 409.06,123.22 411.65,150.33 414.15,146.46 416.74,150.33 419.24,140.65 421.82,150.33 424.41,152.27 426.83,160.02 429.41,123.22 " />
    <polyline
       id="polyline87"
       clip-path="url(#cpMzcuNjh8NDQ4LjA2fDI1Mi41OHw1LjQ4)"
       style="stroke:#525252;stroke-width:0.64;stroke-linecap:butt;stroke-opacity:0.4"
       points="56.34,241.35 58.92,241.35 61.34,231.67 63.93,231.67 66.43,241.35 69.01,229.73 71.51,241.35 74.10,216.18 76.68,241.35 79.19,225.86 81.77,241.35 84.27,241.35 86.86,241.35 89.44,241.35 91.78,241.35 94.36,225.86 96.86,225.86 99.45,241.35 101.95,227.80 104.53,231.67 107.12,241.35 109.62,241.35 112.21,241.35 114.71,241.35 117.29,241.35 119.88,241.35 122.21,241.35 124.80,231.67 127.30,231.67 129.88,241.35 132.39,241.35 134.97,241.35 137.56,231.67 140.06,221.99 142.64,235.54 145.14,235.54 147.73,239.41 150.31,235.54 152.65,239.41 155.23,239.41 157.74,239.41 160.32,237.48 162.82,237.48 165.41,239.41 167.99,231.67 170.49,237.48 173.08,237.48 175.58,237.48 178.17,237.48 180.75,237.48 183.17,237.48 185.75,239.41 188.26,237.48 190.84,231.67 193.34,237.48 195.93,237.48 198.51,239.41 201.01,237.48 203.60,231.67 206.10,239.41 208.69,239.41 211.27,239.41 213.60,239.41 216.19,239.41 218.69,239.41 221.28,237.48 223.78,235.54 226.36,239.41 228.95,239.41 231.45,239.41 234.03,239.41 236.54,241.35 239.12,237.48 241.71,239.41 244.04,239.41 246.63,239.41 249.13,239.41 251.71,239.41 254.21,239.41 256.80,239.41 259.38,237.48 261.89,239.41 264.47,241.35 266.97,239.41 269.56,239.41 272.14,239.41 274.48,239.41 277.06,239.41 279.56,239.41 282.15,239.41 284.65,239.41 287.24,239.41 289.82,239.41 292.32,239.41 294.91,239.41 297.41,239.41 299.99,239.41 302.58,239.41 305.00,239.41 307.58,239.41 310.08,239.41 312.67,239.41 315.17,237.48 317.76,237.48 320.34,239.41 322.84,239.41 325.43,239.41 327.93,239.41 330.51,239.41 333.10,239.41 335.43,239.41 338.02,241.35 340.52,239.41 343.10,239.41 345.61,239.41 348.19,239.41 350.78,239.41 353.28,239.41 355.86,239.41 358.36,239.41 360.95,239.41 363.53,239.41 365.87,239.41 368.45,239.41 370.96,239.41 373.54,239.41 376.04,239.41 378.63,239.41 381.21,239.41 383.71,239.41 386.30,239.41 388.80,239.41 391.39,237.48 393.97,237.48 396.31,239.41 398.89,239.41 401.39,239.41 403.98,239.41 406.48,239.41 409.06,239.41 411.65,239.41 414.15,239.41 416.74,237.48 419.24,239.41 421.82,237.48 424.41,239.41 426.83,239.41 429.41,237.48 " />
    <polyline
       id="polyline89"
       clip-path="url(#cpMzcuNjh8NDQ4LjA2fDI1Mi41OHw1LjQ4)"
       style="stroke:#525252;stroke-width:0.64;stroke-linecap:butt;stroke-opacity:0.4"
       points="56.34,192.94 58.92,218.11 61.34,214.24 63.93,218.11 66.43,214.24 69.01,218.11 71.51,218.11 74.10,212.30 76.68,216.18 79.19,208.43 81.77,221.99 84.27,216.18 86.86,212.30 89.44,214.24 91.78,225.86 94.36,225.86 96.86,225.86 99.45,221.99 101.95,212.30 104.53,196.81 107.12,202.62 109.62,231.67 112.21,223.92 114.71,204.56 117.29,212.30 119.88,216.18 122.21,210.37 124.80,204.56 127.30,221.99 129.88,221.99 132.39,210.37 134.97,221.99 137.56,194.87 140.06,198.75 142.64,210.37 145.14,202.62 147.73,208.43 150.31,212.30 152.65,212.30 155.23,214.24 157.74,212.30 160.32,218.11 162.82,208.43 165.41,202.62 167.99,208.43 170.49,214.24 173.08,210.37 175.58,214.24 178.17,204.56 180.75,212.30 183.17,208.43 185.75,212.30 188.26,221.99 190.84,210.37 193.34,212.30 195.93,204.56 198.51,210.37 201.01,212.30 203.60,212.30 206.10,214.24 208.69,204.56 211.27,214.24 213.60,208.43 216.19,212.30 218.69,202.62 221.28,212.30 223.78,204.56 226.36,202.62 228.95,204.56 231.45,210.37 234.03,212.30 236.54,214.24 239.12,198.75 241.71,202.62 244.04,212.30 246.63,202.62 249.13,196.81 251.71,202.62 254.21,212.30 256.80,198.75 259.38,198.75 261.89,198.75 264.47,202.62 266.97,202.62 269.56,198.75 272.14,204.56 274.48,196.81 277.06,198.75 279.56,196.81 282.15,198.75 284.65,187.13 287.24,196.81 289.82,198.75 292.32,196.81 294.91,204.56 297.41,198.75 299.99,192.94 302.58,198.75 305.00,198.75 307.58,194.87 310.08,196.81 312.67,202.62 315.17,192.94 317.76,198.75 320.34,187.13 322.84,189.06 325.43,194.87 327.93,198.75 330.51,187.13 333.10,187.13 335.43,192.94 338.02,198.75 340.52,198.75 343.10,194.87 345.61,189.06 348.19,185.19 350.78,185.19 353.28,194.87 355.86,189.06 358.36,192.94 360.95,175.51 363.53,187.13 365.87,187.13 368.45,181.32 370.96,189.06 373.54,185.19 376.04,192.94 378.63,173.57 381.21,181.32 383.71,185.19 386.30,187.13 388.80,187.13 391.39,181.32 393.97,181.32 396.31,167.76 398.89,187.13 401.39,181.32 403.98,167.76 406.48,179.38 409.06,173.57 411.65,175.51 414.15,179.38 416.74,173.57 419.24,181.32 421.82,167.76 424.41,185.19 426.83,187.13 429.41,167.76 " />
    <polyline
       id="polyline91"
       clip-path="url(#cpMzcuNjh8NDQ4LjA2fDI1Mi41OHw1LjQ4)"
       style="stroke:#525252;stroke-width:0.64;stroke-linecap:butt;stroke-opacity:0.4"
       points="56.34,229.73 58.92,198.75 61.34,225.86 63.93,218.11 66.43,225.86 69.01,218.11 71.51,218.11 74.10,225.86 76.68,231.67 79.19,221.99 81.77,212.30 84.27,225.86 86.86,225.86 89.44,241.35 91.78,223.92 94.36,221.99 96.86,231.67 99.45,221.99 101.95,225.86 104.53,214.24 107.12,225.86 109.62,227.80 112.21,221.99 114.71,208.43 117.29,225.86 119.88,227.80 122.21,221.99 124.80,221.99 127.30,225.86 129.88,214.24 132.39,221.99 134.97,221.99 137.56,231.67 140.06,235.54 142.64,231.67 145.14,231.67 147.73,214.24 150.31,231.67 152.65,225.86 155.23,225.86 157.74,223.92 160.32,223.92 162.82,218.11 165.41,223.92 167.99,221.99 170.49,221.99 173.08,225.86 175.58,231.67 178.17,225.86 180.75,227.80 183.17,231.67 185.75,227.80 188.26,225.86 190.84,227.80 193.34,227.80 195.93,221.99 198.51,223.92 201.01,235.54 203.60,225.86 206.10,229.73 208.69,225.86 211.27,225.86 213.60,231.67 216.19,225.86 218.69,225.86 221.28,231.67 223.78,221.99 226.36,231.67 228.95,227.80 231.45,231.67 234.03,225.86 236.54,231.67 239.12,229.73 241.71,231.67 244.04,231.67 246.63,231.67 249.13,229.73 251.71,231.67 254.21,231.67 256.80,231.67 259.38,229.73 261.89,231.67 264.47,225.86 266.97,231.67 269.56,231.67 272.14,231.67 274.48,229.73 277.06,231.67 279.56,227.80 282.15,225.86 284.65,227.80 287.24,231.67 289.82,229.73 292.32,229.73 294.91,231.67 297.41,229.73 299.99,231.67 302.58,231.67 305.00,231.67 307.58,231.67 310.08,227.80 312.67,227.80 315.17,229.73 317.76,231.67 320.34,229.73 322.84,231.67 325.43,231.67 327.93,231.67 330.51,231.67 333.10,231.67 335.43,231.67 338.02,231.67 340.52,231.67 343.10,229.73 345.61,231.67 348.19,231.67 350.78,231.67 353.28,231.67 355.86,231.67 358.36,231.67 360.95,231.67 363.53,231.67 365.87,231.67 368.45,231.67 370.96,231.67 373.54,231.67 376.04,229.73 378.63,229.73 381.21,231.67 383.71,235.54 386.30,231.67 388.80,231.67 391.39,231.67 393.97,231.67 396.31,231.67 398.89,231.67 401.39,231.67 403.98,231.67 406.48,229.73 409.06,225.86 411.65,231.67 414.15,231.67 416.74,235.54 419.24,231.67 421.82,229.73 424.41,231.67 426.83,231.67 429.41,231.67 " />
    <polyline
       id="polyline93"
       clip-path="url(#cpMzcuNjh8NDQ4LjA2fDI1Mi41OHw1LjQ4)"
       style="stroke:#525252;stroke-width:0.64;stroke-linecap:butt;stroke-opacity:0.4"
       points="56.34,216.18 58.92,218.11 61.34,210.37 63.93,208.43 66.43,218.11 69.01,208.43 71.51,231.67 74.10,204.56 76.68,231.67 79.19,229.73 81.77,218.11 84.27,221.99 86.86,212.30 89.44,196.81 91.78,204.56 94.36,216.18 96.86,214.24 99.45,214.24 101.95,218.11 104.53,218.11 107.12,231.67 109.62,212.30 112.21,221.99 114.71,225.86 117.29,221.99 119.88,235.54 122.21,214.24 124.80,204.56 127.30,204.56 129.88,231.67 132.39,218.11 134.97,221.99 137.56,221.99 140.06,225.86 142.64,210.37 145.14,214.24 147.73,204.56 150.31,214.24 152.65,216.18 155.23,210.37 157.74,214.24 160.32,210.37 162.82,216.18 165.41,212.30 167.99,221.99 170.49,214.24 173.08,216.18 175.58,214.24 178.17,208.43 180.75,214.24 183.17,202.62 185.75,218.11 188.26,214.24 190.84,221.99 193.34,218.11 195.93,218.11 198.51,214.24 201.01,225.86 203.60,218.11 206.10,214.24 208.69,212.30 211.27,218.11 213.60,212.30 216.19,216.18 218.69,218.11 221.28,221.99 223.78,214.24 226.36,214.24 228.95,225.86 231.45,221.99 234.03,216.18 236.54,218.11 239.12,221.99 241.71,223.92 244.04,216.18 246.63,221.99 249.13,214.24 251.71,216.18 254.21,218.11 256.80,216.18 259.38,225.86 261.89,221.99 264.47,218.11 266.97,218.11 269.56,218.11 272.14,214.24 274.48,214.24 277.06,221.99 279.56,221.99 282.15,227.80 284.65,216.18 287.24,214.24 289.82,216.18 292.32,216.18 294.91,218.11 297.41,214.24 299.99,214.24 302.58,218.11 305.00,218.11 307.58,225.86 310.08,221.99 312.67,225.86 315.17,221.99 317.76,221.99 320.34,225.86 322.84,218.11 325.43,223.92 327.93,225.86 330.51,216.18 333.10,218.11 335.43,223.92 338.02,223.92 340.52,227.80 343.10,221.99 345.61,218.11 348.19,223.92 350.78,227.80 353.28,225.86 355.86,221.99 358.36,221.99 360.95,218.11 363.53,223.92 365.87,221.99 368.45,221.99 370.96,225.86 373.54,221.99 376.04,218.11 378.63,223.92 381.21,225.86 383.71,216.18 386.30,225.86 388.80,221.99 391.39,218.11 393.97,221.99 396.31,225.86 398.89,221.99 401.39,225.86 403.98,225.86 406.48,221.99 409.06,221.99 411.65,223.92 414.15,221.99 416.74,225.86 419.24,221.99 421.82,216.18 424.41,225.86 426.83,223.92 429.41,216.18 " />
    <polyline
       id="polyline95"
       clip-path="url(#cpMzcuNjh8NDQ4LjA2fDI1Mi41OHw1LjQ4)"
       style="stroke:#525252;stroke-width:0.64;stroke-linecap:butt;stroke-opacity:0.4"
       points="56.34,229.73 58.92,229.73 61.34,208.43 63.93,241.35 66.43,218.11 69.01,229.73 71.51,218.11 74.10,229.73 76.68,231.67 79.19,225.86 81.77,241.35 84.27,229.73 86.86,231.67 89.44,231.67 91.78,227.80 94.36,225.86 96.86,231.67 99.45,241.35 101.95,231.67 104.53,231.67 107.12,231.67 109.62,231.67 112.21,231.67 114.71,227.80 117.29,235.54 119.88,227.80 122.21,227.80 124.80,235.54 127.30,225.86 129.88,231.67 132.39,231.67 134.97,231.67 137.56,235.54 140.06,235.54 142.64,221.99 145.14,231.67 147.73,237.48 150.31,235.54 152.65,235.54 155.23,231.67 157.74,231.67 160.32,235.54 162.82,237.48 165.41,231.67 167.99,227.80 170.49,237.48 173.08,235.54 175.58,237.48 178.17,235.54 180.75,237.48 183.17,231.67 185.75,237.48 188.26,229.73 190.84,227.80 193.34,225.86 195.93,229.73 198.51,229.73 201.01,231.67 203.60,227.80 206.10,231.67 208.69,229.73 211.27,231.67 213.60,231.67 216.19,231.67 218.69,231.67 221.28,229.73 223.78,231.67 226.36,227.80 228.95,229.73 231.45,231.67 234.03,231.67 236.54,231.67 239.12,223.92 241.71,231.67 244.04,229.73 246.63,227.80 249.13,225.86 251.71,225.86 254.21,223.92 256.80,221.99 259.38,225.86 261.89,225.86 264.47,227.80 266.97,225.86 269.56,223.92 272.14,227.80 274.48,223.92 277.06,214.24 279.56,221.99 282.15,221.99 284.65,216.18 287.24,216.18 289.82,218.11 292.32,212.30 294.91,216.18 297.41,225.86 299.99,221.99 302.58,218.11 305.00,218.11 307.58,216.18 310.08,216.18 312.67,216.18 315.17,204.56 317.76,212.30 320.34,214.24 322.84,212.30 325.43,210.37 327.93,216.18 330.51,218.11 333.10,212.30 335.43,210.37 338.02,210.37 340.52,210.37 343.10,216.18 345.61,204.56 348.19,200.68 350.78,210.37 353.28,212.30 355.86,214.24 358.36,202.62 360.95,204.56 363.53,212.30 365.87,208.43 368.45,198.75 370.96,200.68 373.54,198.75 376.04,198.75 378.63,192.94 381.21,212.30 383.71,198.75 386.30,210.37 388.80,202.62 391.39,202.62 393.97,204.56 396.31,171.64 398.89,187.13 401.39,181.32 403.98,187.13 406.48,173.57 409.06,167.76 411.65,171.64 414.15,173.57 416.74,192.94 419.24,192.94 421.82,173.57 424.41,181.32 426.83,181.32 429.41,169.70 " />
    <polyline
       id="polyline97"
       clip-path="url(#cpMzcuNjh8NDQ4LjA2fDI1Mi41OHw1LjQ4)"
       style="stroke:#525252;stroke-width:0.64;stroke-linecap:butt;stroke-opacity:0.4"
       points="56.34,204.56 58.92,183.25 61.34,208.43 63.93,198.75 66.43,192.94 69.01,200.68 71.51,187.13 74.10,154.21 76.68,156.14 79.19,192.94 81.77,187.13 84.27,158.08 86.86,192.94 89.44,183.25 91.78,198.75 94.36,158.08 96.86,192.94 99.45,192.94 101.95,160.02 104.53,181.32 107.12,158.08 109.62,185.19 112.21,158.08 114.71,146.46 117.29,185.19 119.88,181.32 122.21,160.02 124.80,161.95 127.30,146.46 129.88,198.75 132.39,173.57 134.97,130.97 137.56,140.65 140.06,167.76 142.64,204.56 145.14,161.95 147.73,192.94 150.31,192.94 152.65,173.57 155.23,169.70 157.74,179.38 160.32,187.13 162.82,181.32 165.41,169.70 167.99,173.57 170.49,161.95 173.08,181.32 175.58,187.13 178.17,181.32 180.75,175.51 183.17,173.57 185.75,189.06 188.26,173.57 190.84,173.57 193.34,173.57 195.93,175.51 198.51,185.19 201.01,173.57 203.60,175.51 206.10,189.06 208.69,181.32 211.27,185.19 213.60,187.13 216.19,181.32 218.69,181.32 221.28,181.32 223.78,183.25 226.36,167.76 228.95,187.13 231.45,179.38 234.03,181.32 236.54,189.06 239.12,183.25 241.71,192.94 244.04,187.13 246.63,183.25 249.13,189.06 251.71,183.25 254.21,187.13 256.80,175.51 259.38,192.94 261.89,171.64 264.47,181.32 266.97,181.32 269.56,181.32 272.14,189.06 274.48,181.32 277.06,183.25 279.56,181.32 282.15,179.38 284.65,185.19 287.24,167.76 289.82,179.38 292.32,169.70 294.91,183.25 297.41,185.19 299.99,169.70 302.58,192.94 305.00,185.19 307.58,187.13 310.08,192.94 312.67,181.32 315.17,173.57 317.76,169.70 320.34,181.32 322.84,167.76 325.43,181.32 327.93,187.13 330.51,181.32 333.10,187.13 335.43,183.25 338.02,183.25 340.52,187.13 343.10,192.94 345.61,192.94 348.19,171.64 350.78,181.32 353.28,181.32 355.86,167.76 358.36,161.95 360.95,171.64 363.53,187.13 365.87,183.25 368.45,187.13 370.96,187.13 373.54,183.25 376.04,187.13 378.63,179.38 381.21,189.06 383.71,187.13 386.30,189.06 388.80,192.94 391.39,183.25 393.97,187.13 396.31,192.94 398.89,185.19 401.39,192.94 403.98,187.13 406.48,175.51 409.06,181.32 411.65,187.13 414.15,192.94 416.74,187.13 419.24,181.32 421.82,181.32 424.41,189.06 426.83,196.81 429.41,181.32 " />
    <polyline
       id="polyline99"
       clip-path="url(#cpMzcuNjh8NDQ4LjA2fDI1Mi41OHw1LjQ4)"
       style="stroke:#525252;stroke-width:0.64;stroke-linecap:butt;stroke-opacity:0.4"
       points="56.34,192.94 58.92,179.38 61.34,181.32 63.93,152.27 66.43,167.76 69.01,167.76 71.51,202.62 74.10,171.64 76.68,156.14 79.19,142.59 81.77,161.95 84.27,181.32 86.86,167.76 89.44,123.22 91.78,158.08 94.36,161.95 96.86,192.94 99.45,169.70 101.95,160.02 104.53,111.60 107.12,161.95 109.62,175.51 112.21,117.41 114.71,150.33 117.29,187.13 119.88,169.70 122.21,181.32 124.80,150.33 127.30,183.25 129.88,150.33 132.39,144.52 134.97,146.46 137.56,160.02 140.06,127.09 142.64,150.33 145.14,167.76 147.73,146.46 150.31,146.46 152.65,144.52 155.23,154.21 157.74,169.70 160.32,152.27 162.82,156.14 165.41,146.46 167.99,154.21 170.49,150.33 173.08,158.08 175.58,173.57 178.17,154.21 180.75,160.02 183.17,175.51 185.75,158.08 188.26,181.32 190.84,146.46 193.34,142.59 195.93,146.46 198.51,146.46 201.01,169.70 203.60,169.70 206.10,169.70 208.69,158.08 211.27,158.08 213.60,167.76 216.19,167.76 218.69,158.08 221.28,154.21 223.78,156.14 226.36,146.46 228.95,161.95 231.45,158.08 234.03,156.14 236.54,146.46 239.12,154.21 241.71,167.76 244.04,150.33 246.63,161.95 249.13,146.46 251.71,146.46 254.21,142.59 256.80,140.65 259.38,158.08 261.89,158.08 264.47,158.08 266.97,138.71 269.56,136.78 272.14,144.52 274.48,140.65 277.06,150.33 279.56,152.27 282.15,152.27 284.65,132.90 287.24,130.97 289.82,154.21 292.32,152.27 294.91,140.65 297.41,123.22 299.99,132.90 302.58,154.21 305.00,156.14 307.58,160.02 310.08,154.21 312.67,161.95 315.17,144.52 317.76,144.52 320.34,154.21 322.84,154.21 325.43,156.14 327.93,144.52 330.51,132.90 333.10,154.21 335.43,156.14 338.02,158.08 340.52,154.21 343.10,146.46 345.61,144.52 348.19,146.46 350.78,144.52 353.28,140.65 355.86,146.46 358.36,130.97 360.95,123.22 363.53,150.33 365.87,146.46 368.45,142.59 370.96,154.21 373.54,146.46 376.04,140.65 378.63,146.46 381.21,156.14 383.71,154.21 386.30,158.08 388.80,144.52 391.39,140.65 393.97,152.27 396.31,142.59 398.89,140.65 401.39,140.65 403.98,152.27 406.48,127.09 409.06,111.60 411.65,140.65 414.15,129.03 416.74,140.65 419.24,138.71 421.82,129.03 424.41,146.46 426.83,146.46 429.41,125.16 " />
    <polyline
       id="polyline101"
       clip-path="url(#cpMzcuNjh8NDQ4LjA2fDI1Mi41OHw1LjQ4)"
       style="stroke:#525252;stroke-width:0.64;stroke-linecap:butt;stroke-opacity:0.4"
       points="56.34,227.80 58.92,241.35 61.34,214.24 63.93,218.11 66.43,221.99 69.01,241.35 71.51,202.62 74.10,218.11 76.68,212.30 79.19,216.18 81.77,221.99 84.27,221.99 86.86,227.80 89.44,216.18 91.78,218.11 94.36,212.30 96.86,216.18 99.45,198.75 101.95,221.99 104.53,218.11 107.12,229.73 109.62,212.30 112.21,192.94 114.71,212.30 117.29,216.18 119.88,202.62 122.21,210.37 124.80,198.75 127.30,210.37 129.88,214.24 132.39,214.24 134.97,216.18 137.56,210.37 140.06,218.11 142.64,218.11 145.14,210.37 147.73,204.56 150.31,204.56 152.65,212.30 155.23,214.24 157.74,208.43 160.32,210.37 162.82,214.24 165.41,212.30 167.99,214.24 170.49,214.24 173.08,210.37 175.58,210.37 178.17,210.37 180.75,218.11 183.17,214.24 185.75,212.30 188.26,202.62 190.84,210.37 193.34,204.56 195.93,202.62 198.51,214.24 201.01,208.43 203.60,208.43 206.10,212.30 208.69,202.62 211.27,202.62 213.60,208.43 216.19,202.62 218.69,214.24 221.28,210.37 223.78,214.24 226.36,204.56 228.95,202.62 231.45,214.24 234.03,210.37 236.54,210.37 239.12,198.75 241.71,210.37 244.04,210.37 246.63,210.37 249.13,210.37 251.71,200.68 254.21,208.43 256.80,208.43 259.38,210.37 261.89,202.62 264.47,212.30 266.97,210.37 269.56,208.43 272.14,212.30 274.48,210.37 277.06,198.75 279.56,210.37 282.15,202.62 284.65,202.62 287.24,210.37 289.82,210.37 292.32,202.62 294.91,204.56 297.41,200.68 299.99,204.56 302.58,204.56 305.00,214.24 307.58,210.37 310.08,204.56 312.67,204.56 315.17,198.75 317.76,202.62 320.34,208.43 322.84,204.56 325.43,204.56 327.93,204.56 330.51,202.62 333.10,202.62 335.43,210.37 338.02,202.62 340.52,212.30 343.10,202.62 345.61,210.37 348.19,204.56 350.78,210.37 353.28,204.56 355.86,204.56 358.36,200.68 360.95,194.87 363.53,198.75 365.87,202.62 368.45,202.62 370.96,202.62 373.54,200.68 376.04,196.81 378.63,192.94 381.21,194.87 383.71,194.87 386.30,198.75 388.80,192.94 391.39,194.87 393.97,187.13 396.31,192.94 398.89,187.13 401.39,194.87 403.98,194.87 406.48,187.13 409.06,183.25 411.65,181.32 414.15,173.57 416.74,187.13 419.24,175.51 421.82,173.57 424.41,173.57 426.83,179.38 429.41,152.27 " />
    <polyline
       id="polyline103"
       clip-path="url(#cpMzcuNjh8NDQ4LjA2fDI1Mi41OHw1LjQ4)"
       style="stroke:#525252;stroke-width:0.64;stroke-linecap:butt;stroke-opacity:0.4"
       points="56.34,142.59 58.92,154.21 61.34,132.90 63.93,132.90 66.43,150.33 69.01,130.97 71.51,129.03 74.10,142.59 76.68,156.14 79.19,158.08 81.77,138.71 84.27,160.02 86.86,171.64 89.44,103.86 91.78,129.03 94.36,136.78 96.86,94.17 99.45,152.27 101.95,98.05 104.53,111.60 107.12,132.90 109.62,161.95 112.21,88.36 114.71,165.83 117.29,129.03 119.88,152.27 122.21,173.57 124.80,173.57 127.30,107.73 129.88,136.78 132.39,161.95 134.97,132.90 137.56,146.46 140.06,156.14 142.64,158.08 145.14,152.27 147.73,123.22 150.31,127.09 152.65,119.35 155.23,123.22 157.74,132.90 160.32,136.78 162.82,140.65 165.41,160.02 167.99,152.27 170.49,140.65 173.08,160.02 175.58,144.52 178.17,132.90 180.75,132.90 183.17,136.78 185.75,146.46 188.26,136.78 190.84,146.46 193.34,132.90 195.93,103.86 198.51,152.27 201.01,152.27 203.60,146.46 206.10,160.02 208.69,146.46 211.27,127.09 213.60,129.03 216.19,132.90 218.69,136.78 221.28,129.03 223.78,132.90 226.36,129.03 228.95,146.46 231.45,152.27 234.03,152.27 236.54,158.08 239.12,144.52 241.71,140.65 244.04,146.46 246.63,132.90 249.13,140.65 251.71,136.78 254.21,132.90 256.80,140.65 259.38,146.46 261.89,150.33 264.47,150.33 266.97,144.52 269.56,127.09 272.14,125.16 274.48,119.35 277.06,127.09 279.56,123.22 282.15,129.03 284.65,125.16 287.24,123.22 289.82,142.59 292.32,132.90 294.91,136.78 297.41,142.59 299.99,123.22 302.58,130.97 305.00,123.22 307.58,129.03 310.08,125.16 312.67,136.78 315.17,123.22 317.76,130.97 320.34,152.27 322.84,140.65 325.43,152.27 327.93,140.65 330.51,117.41 333.10,136.78 335.43,140.65 338.02,136.78 340.52,136.78 343.10,132.90 345.61,129.03 348.19,130.97 350.78,144.52 353.28,150.33 355.86,152.27 358.36,142.59 360.95,119.35 363.53,140.65 365.87,132.90 368.45,144.52 370.96,146.46 373.54,146.46 376.04,140.65 378.63,130.97 381.21,150.33 383.71,154.21 386.30,146.46 388.80,138.71 391.39,129.03 393.97,136.78 396.31,129.03 398.89,140.65 401.39,136.78 403.98,132.90 406.48,129.03 409.06,132.90 411.65,152.27 414.15,144.52 416.74,158.08 419.24,150.33 421.82,125.16 424.41,146.46 426.83,152.27 429.41,111.60 " />
    <polyline
       id="polyline105"
       clip-path="url(#cpMzcuNjh8NDQ4LjA2fDI1Mi41OHw1LjQ4)"
       style="stroke:#525252;stroke-width:0.64;stroke-linecap:butt;stroke-opacity:0.4"
       points="56.34,223.92 58.92,241.35 61.34,225.86 63.93,229.73 66.43,229.73 69.01,241.35 71.51,241.35 74.10,229.73 76.68,227.80 79.19,231.67 81.77,231.67 84.27,231.67 86.86,216.18 89.44,231.67 91.78,231.67 94.36,216.18 96.86,231.67 99.45,227.80 101.95,223.92 104.53,231.67 107.12,241.35 109.62,229.73 112.21,227.80 114.71,227.80 117.29,214.24 119.88,227.80 122.21,235.54 124.80,221.99 127.30,225.86 129.88,218.11 132.39,231.67 134.97,231.67 137.56,227.80 140.06,210.37 142.64,227.80 145.14,221.99 147.73,202.62 150.31,225.86 152.65,227.80 155.23,221.99 157.74,223.92 160.32,223.92 162.82,221.99 165.41,227.80 167.99,225.86 170.49,225.86 173.08,221.99 175.58,221.99 178.17,221.99 180.75,216.18 183.17,214.24 185.75,218.11 188.26,227.80 190.84,221.99 193.34,227.80 195.93,225.86 198.51,221.99 201.01,221.99 203.60,227.80 206.10,218.11 208.69,212.30 211.27,225.86 213.60,221.99 216.19,218.11 218.69,223.92 221.28,225.86 223.78,221.99 226.36,216.18 228.95,231.67 231.45,225.86 234.03,225.86 236.54,225.86 239.12,212.30 241.71,227.80 244.04,227.80 246.63,229.73 249.13,227.80 251.71,227.80 254.21,225.86 256.80,227.80 259.38,227.80 261.89,221.99 264.47,227.80 266.97,223.92 269.56,214.24 272.14,225.86 274.48,221.99 277.06,227.80 279.56,227.80 282.15,221.99 284.65,225.86 287.24,223.92 289.82,225.86 292.32,225.86 294.91,227.80 297.41,225.86 299.99,221.99 302.58,227.80 305.00,225.86 307.58,227.80 310.08,227.80 312.67,229.73 315.17,229.73 317.76,227.80 320.34,227.80 322.84,229.73 325.43,227.80 327.93,221.99 330.51,221.99 333.10,225.86 335.43,221.99 338.02,227.80 340.52,227.80 343.10,231.67 345.61,227.80 348.19,229.73 350.78,229.73 353.28,227.80 355.86,225.86 358.36,223.92 360.95,225.86 363.53,225.86 365.87,227.80 368.45,225.86 370.96,227.80 373.54,229.73 376.04,227.80 378.63,227.80 381.21,227.80 383.71,227.80 386.30,227.80 388.80,225.86 391.39,223.92 393.97,225.86 396.31,225.86 398.89,223.92 401.39,227.80 403.98,227.80 406.48,227.80 409.06,223.92 411.65,227.80 414.15,225.86 416.74,227.80 419.24,227.80 421.82,218.11 424.41,227.80 426.83,229.73 429.41,225.86 " />
    <polyline
       id="polyline107"
       clip-path="url(#cpMzcuNjh8NDQ4LjA2fDI1Mi41OHw1LjQ4)"
       style="stroke:#525252;stroke-width:0.64;stroke-linecap:butt;stroke-opacity:0.4"
       points="56.34,227.80 58.92,218.11 61.34,229.73 63.93,218.11 66.43,229.73 69.01,229.73 71.51,214.24 74.10,241.35 76.68,221.99 79.19,208.43 81.77,214.24 84.27,221.99 86.86,221.99 89.44,231.67 91.78,212.30 94.36,221.99 96.86,231.67 99.45,227.80 101.95,223.92 104.53,231.67 107.12,225.86 109.62,212.30 112.21,198.75 114.71,227.80 117.29,214.24 119.88,202.62 122.21,214.24 124.80,227.80 127.30,214.24 129.88,214.24 132.39,210.37 134.97,231.67 137.56,221.99 140.06,231.67 142.64,204.56 145.14,221.99 147.73,216.18 150.31,221.99 152.65,218.11 155.23,212.30 157.74,218.11 160.32,214.24 162.82,221.99 165.41,208.43 167.99,218.11 170.49,214.24 173.08,216.18 175.58,225.86 178.17,218.11 180.75,214.24 183.17,221.99 185.75,212.30 188.26,223.92 190.84,212.30 193.34,214.24 195.93,212.30 198.51,212.30 201.01,221.99 203.60,214.24 206.10,221.99 208.69,202.62 211.27,221.99 213.60,216.18 216.19,204.56 218.69,214.24 221.28,202.62 223.78,204.56 226.36,202.62 228.95,204.56 231.45,210.37 234.03,210.37 236.54,218.11 239.12,210.37 241.71,210.37 244.04,210.37 246.63,202.62 249.13,210.37 251.71,202.62 254.21,200.68 256.80,202.62 259.38,202.62 261.89,204.56 264.47,200.68 266.97,208.43 269.56,192.94 272.14,204.56 274.48,196.81 277.06,198.75 279.56,202.62 282.15,200.68 284.65,198.75 287.24,198.75 289.82,198.75 292.32,198.75 294.91,196.81 297.41,202.62 299.99,192.94 302.58,198.75 305.00,196.81 307.58,200.68 310.08,194.87 312.67,200.68 315.17,194.87 317.76,192.94 320.34,200.68 322.84,196.81 325.43,198.75 327.93,194.87 330.51,189.06 333.10,198.75 335.43,192.94 338.02,181.32 340.52,192.94 343.10,181.32 345.61,171.64 348.19,179.38 350.78,192.94 353.28,196.81 355.86,187.13 358.36,192.94 360.95,175.51 363.53,187.13 365.87,192.94 368.45,187.13 370.96,187.13 373.54,173.57 376.04,175.51 378.63,173.57 381.21,185.19 383.71,179.38 386.30,189.06 388.80,189.06 391.39,183.25 393.97,192.94 396.31,189.06 398.89,181.32 401.39,189.06 403.98,175.51 406.48,167.76 409.06,161.95 411.65,175.51 414.15,183.25 416.74,187.13 419.24,189.06 421.82,175.51 424.41,192.94 426.83,183.25 429.41,160.02 " />
    <polyline
       id="polyline109"
       clip-path="url(#cpMzcuNjh8NDQ4LjA2fDI1Mi41OHw1LjQ4)"
       style="stroke:#525252;stroke-width:0.64;stroke-linecap:butt;stroke-opacity:0.4"
       points="56.34,142.59 58.92,194.87 61.34,113.54 63.93,161.95 66.43,127.09 69.01,179.38 71.51,196.81 74.10,130.97 76.68,185.19 79.19,152.27 81.77,167.76 84.27,152.27 86.86,132.90 89.44,129.03 91.78,138.71 94.36,109.67 96.86,132.90 99.45,156.14 101.95,154.21 104.53,132.90 107.12,150.33 109.62,129.03 112.21,161.95 114.71,161.95 117.29,117.41 119.88,152.27 122.21,138.71 124.80,138.71 127.30,125.16 129.88,80.62 132.39,140.65 134.97,127.09 137.56,115.48 140.06,142.59 142.64,150.33 145.14,158.08 147.73,127.09 150.31,144.52 152.65,136.78 155.23,146.46 157.74,156.14 160.32,152.27 162.82,130.97 165.41,115.48 167.99,150.33 170.49,144.52 173.08,125.16 175.58,142.59 178.17,123.22 180.75,132.90 183.17,127.09 185.75,138.71 188.26,125.16 190.84,115.48 193.34,132.90 195.93,132.90 198.51,132.90 201.01,138.71 203.60,146.46 206.10,136.78 208.69,115.48 211.27,113.54 213.60,140.65 216.19,119.35 218.69,129.03 221.28,129.03 223.78,127.09 226.36,129.03 228.95,132.90 231.45,138.71 234.03,146.46 236.54,140.65 239.12,142.59 241.71,144.52 244.04,140.65 246.63,138.71 249.13,130.97 251.71,138.71 254.21,132.90 256.80,119.35 259.38,136.78 261.89,136.78 264.47,146.46 266.97,142.59 269.56,109.67 272.14,127.09 274.48,130.97 277.06,140.65 279.56,125.16 282.15,130.97 284.65,130.97 287.24,119.35 289.82,150.33 292.32,144.52 294.91,140.65 297.41,130.97 299.99,138.71 302.58,144.52 305.00,130.97 307.58,146.46 310.08,150.33 312.67,154.21 315.17,138.71 317.76,136.78 320.34,150.33 322.84,154.21 325.43,154.21 327.93,154.21 330.51,140.65 333.10,156.14 335.43,144.52 338.02,144.52 340.52,150.33 343.10,152.27 345.61,138.71 348.19,140.65 350.78,146.46 353.28,140.65 355.86,146.46 358.36,132.90 360.95,125.16 363.53,140.65 365.87,152.27 368.45,158.08 370.96,152.27 373.54,152.27 376.04,132.90 378.63,138.71 381.21,160.02 383.71,152.27 386.30,158.08 388.80,146.46 391.39,127.09 393.97,140.65 396.31,150.33 398.89,154.21 401.39,150.33 403.98,146.46 406.48,138.71 409.06,136.78 411.65,152.27 414.15,150.33 416.74,146.46 419.24,156.14 421.82,130.97 424.41,132.90 426.83,138.71 429.41,123.22 " />
    <polyline
       id="polyline111"
       clip-path="url(#cpMzcuNjh8NDQ4LjA2fDI1Mi41OHw1LjQ4)"
       style="stroke:#525252;stroke-width:0.64;stroke-linecap:butt;stroke-opacity:0.4"
       points="56.34,216.18 58.92,241.35 61.34,229.73 63.93,229.73 66.43,218.11 69.01,229.73 71.51,229.73 74.10,204.56 76.68,231.67 79.19,231.67 81.77,214.24 84.27,225.86 86.86,225.86 89.44,231.67 91.78,223.92 94.36,231.67 96.86,225.86 99.45,223.92 101.95,223.92 104.53,214.24 107.12,229.73 109.62,223.92 112.21,227.80 114.71,218.11 117.29,216.18 119.88,223.92 122.21,225.86 124.80,223.92 127.30,229.73 129.88,225.86 132.39,194.87 134.97,204.56 137.56,227.80 140.06,214.24 142.64,231.67 145.14,231.67 147.73,216.18 150.31,225.86 152.65,231.67 155.23,221.99 157.74,231.67 160.32,225.86 162.82,227.80 165.41,216.18 167.99,223.92 170.49,221.99 173.08,227.80 175.58,225.86 178.17,223.92 180.75,227.80 183.17,225.86 185.75,223.92 188.26,225.86 190.84,221.99 193.34,225.86 195.93,223.92 198.51,216.18 201.01,223.92 203.60,227.80 206.10,225.86 208.69,223.92 211.27,231.67 213.60,227.80 216.19,225.86 218.69,227.80 221.28,225.86 223.78,229.73 226.36,225.86 228.95,227.80 231.45,229.73 234.03,225.86 236.54,227.80 239.12,227.80 241.71,227.80 244.04,225.86 246.63,223.92 249.13,227.80 251.71,221.99 254.21,225.86 256.80,225.86 259.38,223.92 261.89,223.92 264.47,225.86 266.97,225.86 269.56,221.99 272.14,227.80 274.48,227.80 277.06,227.80 279.56,225.86 282.15,227.80 284.65,221.99 287.24,225.86 289.82,225.86 292.32,225.86 294.91,225.86 297.41,225.86 299.99,227.80 302.58,227.80 305.00,225.86 307.58,225.86 310.08,225.86 312.67,227.80 315.17,223.92 317.76,218.11 320.34,223.92 322.84,229.73 325.43,227.80 327.93,225.86 330.51,223.92 333.10,225.86 335.43,229.73 338.02,227.80 340.52,229.73 343.10,227.80 345.61,221.99 348.19,223.92 350.78,227.80 353.28,227.80 355.86,223.92 358.36,223.92 360.95,225.86 363.53,225.86 365.87,225.86 368.45,223.92 370.96,225.86 373.54,221.99 376.04,221.99 378.63,221.99 381.21,218.11 383.71,218.11 386.30,221.99 388.80,221.99 391.39,216.18 393.97,223.92 396.31,218.11 398.89,218.11 401.39,221.99 403.98,216.18 406.48,216.18 409.06,214.24 411.65,221.99 414.15,221.99 416.74,221.99 419.24,223.92 421.82,218.11 424.41,218.11 426.83,212.30 429.41,208.43 " />
    <polyline
       id="polyline113"
       clip-path="url(#cpMzcuNjh8NDQ4LjA2fDI1Mi41OHw1LjQ4)"
       style="stroke:#525252;stroke-width:0.64;stroke-linecap:butt;stroke-opacity:0.4"
       points="56.34,229.73 58.92,229.73 61.34,218.11 63.93,241.35 66.43,225.86 69.01,241.35 71.51,241.35 74.10,229.73 76.68,223.92 79.19,225.86 81.77,231.67 84.27,231.67 86.86,225.86 89.44,227.80 91.78,225.86 94.36,225.86 96.86,216.18 99.45,192.94 101.95,212.30 104.53,218.11 107.12,231.67 109.62,227.80 112.21,192.94 114.71,225.86 117.29,210.37 119.88,208.43 122.21,212.30 124.80,223.92 127.30,210.37 129.88,208.43 132.39,218.11 134.97,210.37 137.56,218.11 140.06,208.43 142.64,200.68 145.14,200.68 147.73,212.30 150.31,204.56 152.65,198.75 155.23,208.43 157.74,202.62 160.32,200.68 162.82,210.37 165.41,189.06 167.99,198.75 170.49,179.38 173.08,173.57 175.58,183.25 178.17,175.51 180.75,187.13 183.17,202.62 185.75,200.68 188.26,212.30 190.84,202.62 193.34,204.56 195.93,196.81 198.51,202.62 201.01,200.68 203.60,214.24 206.10,214.24 208.69,194.87 211.27,204.56 213.60,212.30 216.19,208.43 218.69,204.56 221.28,210.37 223.78,202.62 226.36,202.62 228.95,208.43 231.45,198.75 234.03,198.75 236.54,204.56 239.12,204.56 241.71,200.68 244.04,208.43 246.63,210.37 249.13,208.43 251.71,204.56 254.21,210.37 256.80,198.75 259.38,202.62 261.89,208.43 264.47,204.56 266.97,212.30 269.56,210.37 272.14,210.37 274.48,202.62 277.06,214.24 279.56,216.18 282.15,208.43 284.65,204.56 287.24,202.62 289.82,204.56 292.32,202.62 294.91,208.43 297.41,208.43 299.99,194.87 302.58,202.62 305.00,202.62 307.58,212.30 310.08,204.56 312.67,208.43 315.17,202.62 317.76,202.62 320.34,208.43 322.84,208.43 325.43,208.43 327.93,204.56 330.51,194.87 333.10,210.37 335.43,208.43 338.02,210.37 340.52,210.37 343.10,210.37 345.61,196.81 348.19,200.68 350.78,212.30 353.28,212.30 355.86,210.37 358.36,208.43 360.95,202.62 363.53,210.37 365.87,210.37 368.45,210.37 370.96,214.24 373.54,202.62 376.04,202.62 378.63,204.56 381.21,216.18 383.71,210.37 386.30,212.30 388.80,210.37 391.39,208.43 393.97,204.56 396.31,204.56 398.89,208.43 401.39,212.30 403.98,208.43 406.48,198.75 409.06,196.81 411.65,208.43 414.15,200.68 416.74,204.56 419.24,210.37 421.82,200.68 424.41,192.94 426.83,198.75 429.41,183.25 " />
    <polyline
       id="polyline115"
       clip-path="url(#cpMzcuNjh8NDQ4LjA2fDI1Mi41OHw1LjQ4)"
       style="stroke:#525252;stroke-width:0.64;stroke-linecap:butt;stroke-opacity:0.4"
       points="56.34,223.92 58.92,218.11 61.34,218.11 63.93,218.11 66.43,210.37 69.01,229.73 71.51,229.73 74.10,223.92 76.68,223.92 79.19,216.18 81.77,214.24 84.27,216.18 86.86,229.73 89.44,216.18 91.78,212.30 94.36,216.18 96.86,216.18 99.45,216.18 101.95,212.30 104.53,196.81 107.12,204.56 109.62,216.18 112.21,216.18 114.71,227.80 117.29,210.37 119.88,216.18 122.21,212.30 124.80,229.73 127.30,221.99 129.88,210.37 132.39,221.99 134.97,210.37 137.56,229.73 140.06,221.99 142.64,212.30 145.14,216.18 147.73,212.30 150.31,214.24 152.65,214.24 155.23,221.99 157.74,223.92 160.32,212.30 162.82,223.92 165.41,212.30 167.99,227.80 170.49,223.92 173.08,223.92 175.58,221.99 178.17,218.11 180.75,225.86 183.17,221.99 185.75,221.99 188.26,221.99 190.84,218.11 193.34,221.99 195.93,218.11 198.51,218.11 201.01,221.99 203.60,223.92 206.10,225.86 208.69,221.99 211.27,223.92 213.60,221.99 216.19,225.86 218.69,216.18 221.28,231.67 223.78,221.99 226.36,216.18 228.95,225.86 231.45,223.92 234.03,223.92 236.54,221.99 239.12,227.80 241.71,218.11 244.04,223.92 246.63,225.86 249.13,223.92 251.71,218.11 254.21,221.99 256.80,223.92 259.38,223.92 261.89,218.11 264.47,218.11 266.97,223.92 269.56,216.18 272.14,216.18 274.48,221.99 277.06,214.24 279.56,225.86 282.15,225.86 284.65,225.86 287.24,221.99 289.82,221.99 292.32,225.86 294.91,223.92 297.41,223.92 299.99,214.24 302.58,216.18 305.00,221.99 307.58,223.92 310.08,223.92 312.67,223.92 315.17,216.18 317.76,223.92 320.34,223.92 322.84,221.99 325.43,218.11 327.93,221.99 330.51,223.92 333.10,221.99 335.43,223.92 338.02,225.86 340.52,227.80 343.10,218.11 345.61,214.24 348.19,214.24 350.78,225.86 353.28,221.99 355.86,218.11 358.36,221.99 360.95,214.24 363.53,218.11 365.87,218.11 368.45,218.11 370.96,221.99 373.54,218.11 376.04,212.30 378.63,210.37 381.21,216.18 383.71,214.24 386.30,216.18 388.80,214.24 391.39,212.30 393.97,214.24 396.31,210.37 398.89,216.18 401.39,216.18 403.98,214.24 406.48,212.30 409.06,208.43 411.65,216.18 414.15,214.24 416.74,204.56 419.24,210.37 421.82,210.37 424.41,210.37 426.83,212.30 429.41,210.37 " />
    <polyline
       id="polyline117"
       clip-path="url(#cpMzcuNjh8NDQ4LjA2fDI1Mi41OHw1LjQ4)"
       style="stroke:#525252;stroke-width:0.64;stroke-linecap:butt;stroke-opacity:0.4"
       points="56.34,192.94 58.92,189.06 61.34,214.24 63.93,208.43 66.43,183.25 69.01,189.06 71.51,196.81 74.10,189.06 76.68,173.57 79.19,196.81 81.77,158.08 84.27,204.56 86.86,183.25 89.44,200.68 91.78,179.38 94.36,192.94 96.86,173.57 99.45,179.38 101.95,210.37 104.53,165.83 107.12,154.21 109.62,187.13 112.21,167.76 114.71,181.32 117.29,175.51 119.88,171.64 122.21,169.70 124.80,132.90 127.30,179.38 129.88,181.32 132.39,156.14 134.97,132.90 137.56,144.52 140.06,183.25 142.64,167.76 145.14,196.81 147.73,161.95 150.31,171.64 152.65,169.70 155.23,165.83 157.74,171.64 160.32,179.38 162.82,165.83 165.41,154.21 167.99,158.08 170.49,183.25 173.08,167.76 175.58,187.13 178.17,165.83 180.75,169.70 183.17,179.38 185.75,179.38 188.26,175.51 190.84,161.95 193.34,161.95 195.93,173.57 198.51,167.76 201.01,183.25 203.60,165.83 206.10,183.25 208.69,152.27 211.27,165.83 213.60,169.70 216.19,160.02 218.69,152.27 221.28,171.64 223.78,154.21 226.36,167.76 228.95,179.38 231.45,173.57 234.03,171.64 236.54,181.32 239.12,173.57 241.71,171.64 244.04,167.76 246.63,169.70 249.13,167.76 251.71,156.14 254.21,167.76 256.80,160.02 259.38,161.95 261.89,156.14 264.47,161.95 266.97,161.95 269.56,156.14 272.14,165.83 274.48,160.02 277.06,161.95 279.56,156.14 282.15,161.95 284.65,158.08 287.24,158.08 289.82,171.64 292.32,160.02 294.91,167.76 297.41,156.14 299.99,160.02 302.58,167.76 305.00,179.38 307.58,156.14 310.08,161.95 312.67,165.83 315.17,158.08 317.76,160.02 320.34,154.21 322.84,125.16 325.43,123.22 327.93,101.92 330.51,115.48 333.10,117.41 335.43,119.35 338.02,103.86 340.52,103.86 343.10,82.55 345.61,117.41 348.19,123.22 350.78,117.41 353.28,132.90 355.86,127.09 358.36,125.16 360.95,127.09 363.53,136.78 365.87,140.65 368.45,146.46 370.96,130.97 373.54,138.71 376.04,129.03 378.63,130.97 381.21,156.14 383.71,136.78 386.30,150.33 388.80,144.52 391.39,130.97 393.97,146.46 396.31,150.33 398.89,150.33 401.39,144.52 403.98,142.59 406.48,152.27 409.06,130.97 411.65,140.65 414.15,142.59 416.74,144.52 419.24,16.71 421.82,129.03 424.41,140.65 426.83,152.27 429.41,96.11 " />
    <polyline
       id="polyline119"
       clip-path="url(#cpMzcuNjh8NDQ4LjA2fDI1Mi41OHw1LjQ4)"
       style="stroke:#525252;stroke-width:0.64;stroke-linecap:butt;stroke-opacity:0.4"
       points="56.34,241.35 58.92,229.73 61.34,229.73 63.93,229.73 66.43,229.73 69.01,241.35 71.51,241.35 74.10,229.73 76.68,241.35 79.19,231.67 81.77,241.35 84.27,241.35 86.86,241.35 89.44,231.67 91.78,235.54 94.36,225.86 96.86,231.67 99.45,223.92 101.95,241.35 104.53,231.67 107.12,229.73 109.62,235.54 112.21,204.56 114.71,214.24 117.29,196.81 119.88,200.68 122.21,218.11 124.80,229.73 127.30,221.99 129.88,218.11 132.39,229.73 134.97,231.67 137.56,227.80 140.06,225.86 142.64,218.11 145.14,216.18 147.73,218.11 150.31,214.24 152.65,214.24 155.23,225.86 157.74,225.86 160.32,216.18 162.82,225.86 165.41,216.18 167.99,218.11 170.49,225.86 173.08,214.24 175.58,216.18 178.17,216.18 180.75,214.24 183.17,212.30 185.75,221.99 188.26,216.18 190.84,216.18 193.34,210.37 195.93,225.86 198.51,216.18 201.01,216.18 203.60,214.24 206.10,216.18 208.69,216.18 211.27,212.30 213.60,221.99 216.19,216.18 218.69,221.99 221.28,225.86 223.78,223.92 226.36,221.99 228.95,225.86 231.45,221.99 234.03,221.99 236.54,218.11 239.12,218.11 241.71,223.92 244.04,225.86 246.63,218.11 249.13,223.92 251.71,214.24 254.21,216.18 256.80,216.18 259.38,218.11 261.89,216.18 264.47,223.92 266.97,223.92 269.56,208.43 272.14,214.24 274.48,216.18 277.06,221.99 279.56,212.30 282.15,212.30 284.65,212.30 287.24,221.99 289.82,221.99 292.32,208.43 294.91,221.99 297.41,221.99 299.99,221.99 302.58,223.92 305.00,221.99 307.58,218.11 310.08,221.99 312.67,218.11 315.17,214.24 317.76,218.11 320.34,221.99 322.84,221.99 325.43,223.92 327.93,210.37 330.51,214.24 333.10,212.30 335.43,216.18 338.02,212.30 340.52,212.30 343.10,218.11 345.61,214.24 348.19,214.24 350.78,212.30 353.28,210.37 355.86,218.11 358.36,210.37 360.95,212.30 363.53,208.43 365.87,208.43 368.45,218.11 370.96,204.56 373.54,212.30 376.04,204.56 378.63,204.56 381.21,210.37 383.71,208.43 386.30,212.30 388.80,214.24 391.39,208.43 393.97,196.81 396.31,202.62 398.89,212.30 401.39,208.43 403.98,200.68 406.48,196.81 409.06,202.62 411.65,204.56 414.15,202.62 416.74,204.56 419.24,204.56 421.82,204.56 424.41,216.18 426.83,208.43 429.41,200.68 " />
    <polyline
       id="polyline121"
       clip-path="url(#cpMzcuNjh8NDQ4LjA2fDI1Mi41OHw1LjQ4)"
       style="stroke:#525252;stroke-width:0.64;stroke-linecap:butt;stroke-opacity:0.4"
       points="56.34,185.19 58.92,183.25 61.34,185.19 63.93,196.81 66.43,202.62 69.01,189.06 71.51,185.19 74.10,183.25 76.68,179.38 79.19,204.56 81.77,185.19 84.27,185.19 86.86,171.64 89.44,192.94 91.78,150.33 94.36,196.81 96.86,173.57 99.45,179.38 101.95,202.62 104.53,152.27 107.12,173.57 109.62,165.83 112.21,179.38 114.71,158.08 117.29,173.57 119.88,171.64 122.21,194.87 124.80,161.95 127.30,165.83 129.88,183.25 132.39,198.75 134.97,198.75 137.56,173.57 140.06,185.19 142.64,171.64 145.14,200.68 147.73,171.64 150.31,171.64 152.65,175.51 155.23,185.19 157.74,183.25 160.32,198.75 162.82,179.38 165.41,173.57 167.99,192.94 170.49,192.94 173.08,179.38 175.58,192.94 178.17,189.06 180.75,179.38 183.17,181.32 185.75,185.19 188.26,175.51 190.84,196.81 193.34,181.32 195.93,179.38 198.51,187.13 201.01,187.13 203.60,192.94 206.10,200.68 208.69,183.25 211.27,192.94 213.60,192.94 216.19,185.19 218.69,189.06 221.28,175.51 223.78,185.19 226.36,181.32 228.95,189.06 231.45,194.87 234.03,198.75 236.54,196.81 239.12,181.32 241.71,196.81 244.04,192.94 246.63,179.38 249.13,192.94 251.71,185.19 254.21,181.32 256.80,179.38 259.38,189.06 261.89,185.19 264.47,183.25 266.97,183.25 269.56,187.13 272.14,192.94 274.48,179.38 277.06,187.13 279.56,183.25 282.15,183.25 284.65,183.25 287.24,179.38 289.82,187.13 292.32,185.19 294.91,185.19 297.41,187.13 299.99,173.57 302.58,187.13 305.00,187.13 307.58,189.06 310.08,189.06 312.67,192.94 315.17,183.25 317.76,185.19 320.34,185.19 322.84,187.13 325.43,187.13 327.93,187.13 330.51,192.94 333.10,194.87 335.43,187.13 338.02,189.06 340.52,192.94 343.10,192.94 345.61,179.38 348.19,183.25 350.78,187.13 353.28,198.75 355.86,185.19 358.36,187.13 360.95,181.32 363.53,194.87 365.87,189.06 368.45,194.87 370.96,187.13 373.54,181.32 376.04,185.19 378.63,169.70 381.21,189.06 383.71,187.13 386.30,185.19 388.80,187.13 391.39,179.38 393.97,187.13 396.31,175.51 398.89,181.32 401.39,192.94 403.98,179.38 406.48,175.51 409.06,173.57 411.65,187.13 414.15,183.25 416.74,183.25 419.24,187.13 421.82,175.51 424.41,175.51 426.83,189.06 429.41,171.64 " />
    <polyline
       id="polyline123"
       clip-path="url(#cpMzcuNjh8NDQ4LjA2fDI1Mi41OHw1LjQ4)"
       style="stroke:#525252;stroke-width:0.64;stroke-linecap:butt;stroke-opacity:0.4"
       points="56.34,229.73 58.92,229.73 61.34,229.73 63.93,225.86 66.43,218.11 69.01,229.73 71.51,241.35 74.10,223.92 76.68,227.80 79.19,225.86 81.77,231.67 84.27,225.86 86.86,221.99 89.44,231.67 91.78,223.92 94.36,227.80 96.86,231.67 99.45,223.92 101.95,208.43 104.53,241.35 107.12,229.73 109.62,235.54 112.21,204.56 114.71,231.67 117.29,221.99 119.88,227.80 122.21,235.54 124.80,223.92 127.30,229.73 129.88,235.54 132.39,225.86 134.97,221.99 137.56,227.80 140.06,221.99 142.64,218.11 145.14,231.67 147.73,223.92 150.31,221.99 152.65,223.92 155.23,227.80 157.74,227.80 160.32,231.67 162.82,227.80 165.41,229.73 167.99,227.80 170.49,227.80 173.08,231.67 175.58,221.99 178.17,225.86 180.75,223.92 183.17,225.86 185.75,227.80 188.26,223.92 190.84,229.73 193.34,227.80 195.93,225.86 198.51,229.73 201.01,231.67 203.60,229.73 206.10,225.86 208.69,223.92 211.27,218.11 213.60,225.86 216.19,225.86 218.69,225.86 221.28,227.80 223.78,227.80 226.36,223.92 228.95,231.67 231.45,229.73 234.03,225.86 236.54,227.80 239.12,223.92 241.71,227.80 244.04,229.73 246.63,227.80 249.13,227.80 251.71,225.86 254.21,229.73 256.80,225.86 259.38,227.80 261.89,229.73 264.47,227.80 266.97,229.73 269.56,223.92 272.14,229.73 274.48,231.67 277.06,229.73 279.56,231.67 282.15,227.80 284.65,227.80 287.24,227.80 289.82,231.67 292.32,229.73 294.91,227.80 297.41,235.54 299.99,229.73 302.58,225.86 305.00,231.67 307.58,231.67 310.08,231.67 312.67,231.67 315.17,227.80 317.76,227.80 320.34,225.86 322.84,231.67 325.43,229.73 327.93,231.67 330.51,227.80 333.10,229.73 335.43,229.73 338.02,227.80 340.52,229.73 343.10,229.73 345.61,227.80 348.19,229.73 350.78,229.73 353.28,231.67 355.86,227.80 358.36,229.73 360.95,225.86 363.53,229.73 365.87,229.73 368.45,229.73 370.96,231.67 373.54,231.67 376.04,229.73 378.63,227.80 381.21,229.73 383.71,229.73 386.30,227.80 388.80,227.80 391.39,227.80 393.97,227.80 396.31,229.73 398.89,225.86 401.39,231.67 403.98,227.80 406.48,229.73 409.06,225.86 411.65,227.80 414.15,225.86 416.74,227.80 419.24,227.80 421.82,223.92 424.41,227.80 426.83,221.99 429.41,223.92 " />
    <polyline
       id="polyline125"
       clip-path="url(#cpMzcuNjh8NDQ4LjA2fDI1Mi41OHw1LjQ4)"
       style="stroke:#525252;stroke-width:0.64;stroke-linecap:butt;stroke-opacity:0.4"
       points="56.34,198.75 58.92,206.49 61.34,208.43 63.93,229.73 66.43,198.75 69.01,218.11 71.51,229.73 74.10,212.30 76.68,214.24 79.19,221.99 81.77,227.80 84.27,221.99 86.86,212.30 89.44,221.99 91.78,220.05 94.36,200.68 96.86,241.35 99.45,198.75 101.95,220.05 104.53,206.49 107.12,210.37 109.62,220.05 112.21,202.62 114.71,221.99 117.29,221.99 119.88,218.11 122.21,212.30 124.80,227.80 127.30,202.62 129.88,210.37 132.39,221.99 134.97,229.73 137.56,220.05 140.06,227.80 142.64,210.37 145.14,204.56 147.73,214.24 150.31,218.11 152.65,216.18 155.23,210.37 157.74,212.30 160.32,220.05 162.82,210.37 165.41,212.30 167.99,204.56 170.49,212.30 173.08,218.11 175.58,212.30 178.17,210.37 180.75,216.18 183.17,223.92 185.75,223.92 188.26,220.05 190.84,221.99 193.34,216.18 195.93,208.43 198.51,218.11 201.01,223.92 203.60,214.24 206.10,212.30 208.69,216.18 211.27,218.11 213.60,223.92 216.19,218.11 218.69,214.24 221.28,218.11 223.78,220.05 226.36,218.11 228.95,221.99 231.45,218.11 234.03,216.18 236.54,225.86 239.12,221.99 241.71,227.80 244.04,227.80 246.63,221.99 249.13,221.99 251.71,218.11 254.21,218.11 256.80,223.92 259.38,218.11 261.89,221.99 264.47,220.05 266.97,218.11 269.56,214.24 272.14,221.99 274.48,218.11 277.06,218.11 279.56,218.11 282.15,212.30 284.65,214.24 287.24,216.18 289.82,220.05 292.32,220.05 294.91,218.11 297.41,223.92 299.99,220.05 302.58,223.92 305.00,223.92 307.58,223.92 310.08,223.92 312.67,218.11 315.17,216.18 317.76,220.05 320.34,223.92 322.84,227.80 325.43,221.99 327.93,223.92 330.51,221.99 333.10,220.05 335.43,220.05 338.02,223.92 340.52,225.86 343.10,221.99 345.61,223.92 348.19,218.11 350.78,221.99 353.28,220.05 355.86,221.99 358.36,227.80 360.95,223.92 363.53,221.99 365.87,223.92 368.45,221.99 370.96,225.86 373.54,214.24 376.04,220.05 378.63,212.30 381.21,227.80 383.71,225.86 386.30,225.86 388.80,221.99 391.39,218.11 393.97,223.92 396.31,225.86 398.89,223.92 401.39,223.92 403.98,221.99 406.48,218.11 409.06,218.11 411.65,225.86 414.15,223.92 416.74,223.92 419.24,227.80 421.82,223.92 424.41,221.99 426.83,225.86 429.41,223.92 " />
    <polyline
       id="polyline127"
       clip-path="url(#cpMzcuNjh8NDQ4LjA2fDI1Mi41OHw1LjQ4)"
       style="stroke:#525252;stroke-width:0.64;stroke-linecap:butt;stroke-opacity:0.4"
       points="56.34,229.73 58.92,229.73 61.34,225.86 63.93,208.43 66.43,231.67 69.01,241.35 71.51,241.35 74.10,229.73 76.68,231.67 79.19,229.73 81.77,233.60 84.27,218.11 86.86,218.11 89.44,225.86 91.78,229.73 94.36,233.60 96.86,229.73 99.45,233.60 101.95,233.60 104.53,227.80 107.12,221.99 109.62,233.60 112.21,227.80 114.71,221.99 117.29,231.67 119.88,221.99 122.21,221.99 124.80,223.92 127.30,218.11 129.88,204.56 132.39,214.24 134.97,233.60 137.56,214.24 140.06,227.80 142.64,204.56 145.14,225.86 147.73,229.73 150.31,229.73 152.65,233.60 155.23,231.67 157.74,227.80 160.32,233.60 162.82,229.73 165.41,233.60 167.99,231.67 170.49,233.60 173.08,229.73 175.58,231.67 178.17,231.67 180.75,231.67 183.17,233.60 185.75,233.60 188.26,231.67 190.84,231.67 193.34,229.73 195.93,229.73 198.51,231.67 201.01,231.67 203.60,233.60 206.10,233.60 208.69,231.67 211.27,233.60 213.60,233.60 216.19,231.67 218.69,233.60 221.28,231.67 223.78,229.73 226.36,231.67 228.95,233.60 231.45,229.73 234.03,233.60 236.54,233.60 239.12,233.60 241.71,229.73 244.04,233.60 246.63,233.60 249.13,235.54 251.71,229.73 254.21,231.67 256.80,231.67 259.38,233.60 261.89,237.48 264.47,235.54 266.97,235.54 269.56,233.60 272.14,231.67 274.48,233.60 277.06,233.60 279.56,235.54 282.15,233.60 284.65,233.60 287.24,231.67 289.82,233.60 292.32,231.67 294.91,233.60 297.41,233.60 299.99,233.60 302.58,233.60 305.00,235.54 307.58,235.54 310.08,235.54 312.67,235.54 315.17,233.60 317.76,233.60 320.34,233.60 322.84,235.54 325.43,235.54 327.93,233.60 330.51,233.60 333.10,233.60 335.43,235.54 338.02,231.67 340.52,233.60 343.10,235.54 345.61,235.54 348.19,235.54 350.78,235.54 353.28,235.54 355.86,235.54 358.36,233.60 360.95,233.60 363.53,233.60 365.87,235.54 368.45,233.60 370.96,235.54 373.54,235.54 376.04,235.54 378.63,233.60 381.21,233.60 383.71,233.60 386.30,235.54 388.80,237.48 391.39,233.60 393.97,233.60 396.31,235.54 398.89,235.54 401.39,235.54 403.98,235.54 406.48,233.60 409.06,231.67 411.65,235.54 414.15,233.60 416.74,233.60 419.24,237.48 421.82,233.60 424.41,233.60 426.83,233.60 429.41,229.73 " />
    <polyline
       id="polyline129"
       clip-path="url(#cpMzcuNjh8NDQ4LjA2fDI1Mi41OHw1LjQ4)"
       style="stroke:#525252;stroke-width:0.64;stroke-linecap:butt;stroke-opacity:0.4"
       points="56.34,144.52 58.92,167.76 61.34,154.21 63.93,136.78 66.43,177.44 69.01,179.38 71.51,148.40 74.10,179.38 76.68,148.40 79.19,152.27 81.77,156.14 84.27,130.97 86.86,84.49 89.44,140.65 91.78,121.28 94.36,107.73 96.86,111.60 99.45,103.86 101.95,70.93 104.53,136.78 107.12,78.68 109.62,99.98 112.21,47.70 114.71,84.49 117.29,103.86 119.88,109.67 122.21,156.14 124.80,63.19 127.30,82.55 129.88,129.03 132.39,123.22 134.97,82.55 137.56,92.24 140.06,70.93 142.64,113.54 145.14,125.16 147.73,90.30 150.31,98.05 152.65,107.73 155.23,90.30 157.74,113.54 160.32,117.41 162.82,109.67 165.41,82.55 167.99,113.54 170.49,82.55 173.08,125.16 175.58,101.92 178.17,99.98 180.75,121.28 183.17,107.73 185.75,96.11 188.26,119.35 190.84,119.35 193.34,107.73 195.93,63.19 198.51,98.05 201.01,111.60 203.60,103.86 206.10,119.35 208.69,94.17 211.27,103.86 213.60,109.67 216.19,98.05 218.69,105.79 221.28,115.48 223.78,99.98 226.36,90.30 228.95,111.60 231.45,109.67 234.03,107.73 236.54,130.97 239.12,107.73 241.71,123.22 244.04,107.73 246.63,105.79 249.13,90.30 251.71,92.24 254.21,96.11 256.80,99.98 259.38,98.05 261.89,90.30 264.47,98.05 266.97,115.48 269.56,98.05 272.14,119.35 274.48,90.30 277.06,94.17 279.56,107.73 282.15,105.79 284.65,90.30 287.24,86.43 289.82,105.79 292.32,96.11 294.91,105.79 297.41,99.98 299.99,82.55 302.58,99.98 305.00,105.79 307.58,94.17 310.08,105.79 312.67,101.92 315.17,84.49 317.76,72.87 320.34,90.30 322.84,90.30 325.43,96.11 327.93,113.54 330.51,80.62 333.10,115.48 335.43,99.98 338.02,103.86 340.52,107.73 343.10,96.11 345.61,94.17 348.19,84.49 350.78,92.24 353.28,98.05 355.86,101.92 358.36,98.05 360.95,80.62 363.53,105.79 365.87,115.48 368.45,117.41 370.96,109.67 373.54,115.48 376.04,96.11 378.63,107.73 381.21,117.41 383.71,99.98 386.30,109.67 388.80,115.48 391.39,98.05 393.97,105.79 396.31,115.48 398.89,113.54 401.39,115.48 403.98,96.11 406.48,90.30 409.06,80.62 411.65,98.05 414.15,101.92 416.74,111.60 419.24,119.35 421.82,101.92 424.41,154.21 426.83,179.38 429.41,80.62 " />
    <polyline
       id="polyline131"
       clip-path="url(#cpMzcuNjh8NDQ4LjA2fDI1Mi41OHw1LjQ4)"
       style="stroke:#525252;stroke-width:0.64;stroke-linecap:butt;stroke-opacity:0.4"
       points="56.34,218.11 58.92,241.35 61.34,229.73 63.93,229.73 66.43,231.67 69.01,229.73 71.51,229.73 74.10,229.73 76.68,241.35 79.19,241.35 81.77,233.60 84.27,225.86 86.86,233.60 89.44,233.60 91.78,233.60 94.36,233.60 96.86,233.60 99.45,233.60 101.95,223.92 104.53,227.80 107.12,225.86 109.62,233.60 112.21,233.60 114.71,216.18 117.29,227.80 119.88,235.54 122.21,229.73 124.80,227.80 127.30,233.60 129.88,233.60 132.39,241.35 134.97,229.73 137.56,241.35 140.06,235.54 142.64,241.35 145.14,229.73 147.73,235.54 150.31,235.54 152.65,235.54 155.23,235.54 157.74,237.48 160.32,239.41 162.82,233.60 165.41,231.67 167.99,229.73 170.49,237.48 173.08,233.60 175.58,233.60 178.17,239.41 180.75,235.54 183.17,235.54 185.75,235.54 188.26,231.67 190.84,239.41 193.34,235.54 195.93,229.73 198.51,237.48 201.01,237.48 203.60,235.54 206.10,237.48 208.69,233.60 211.27,235.54 213.60,235.54 216.19,237.48 218.69,233.60 221.28,233.60 223.78,235.54 226.36,235.54 228.95,237.48 231.45,239.41 234.03,237.48 236.54,237.48 239.12,237.48 241.71,237.48 244.04,235.54 246.63,237.48 249.13,237.48 251.71,237.48 254.21,237.48 256.80,237.48 259.38,237.48 261.89,235.54 264.47,235.54 266.97,237.48 269.56,237.48 272.14,237.48 274.48,235.54 277.06,237.48 279.56,237.48 282.15,233.60 284.65,233.60 287.24,233.60 289.82,233.60 292.32,235.54 294.91,235.54 297.41,237.48 299.99,237.48 302.58,239.41 305.00,237.48 307.58,237.48 310.08,237.48 312.67,237.48 315.17,233.60 317.76,237.48 320.34,237.48 322.84,233.60 325.43,237.48 327.93,237.48 330.51,237.48 333.10,237.48 335.43,237.48 338.02,237.48 340.52,235.54 343.10,237.48 345.61,237.48 348.19,237.48 350.78,239.41 353.28,237.48 355.86,239.41 358.36,239.41 360.95,237.48 363.53,235.54 365.87,237.48 368.45,235.54 370.96,237.48 373.54,233.60 376.04,235.54 378.63,237.48 381.21,237.48 383.71,237.48 386.30,237.48 388.80,235.54 391.39,235.54 393.97,235.54 396.31,237.48 398.89,233.60 401.39,235.54 403.98,233.60 406.48,233.60 409.06,233.60 411.65,235.54 414.15,235.54 416.74,237.48 419.24,235.54 421.82,235.54 424.41,233.60 426.83,235.54 429.41,235.54 " />
    <polyline
       id="polyline133"
       clip-path="url(#cpMzcuNjh8NDQ4LjA2fDI1Mi41OHw1LjQ4)"
       style="stroke:#525252;stroke-width:0.64;stroke-linecap:butt;stroke-opacity:0.4"
       points="56.34,218.11 58.92,223.92 61.34,220.05 63.93,220.05 66.43,231.67 69.01,218.11 71.51,220.05 74.10,206.49 76.68,231.67 79.19,225.86 81.77,223.92 84.27,214.24 86.86,225.86 89.44,221.99 91.78,229.73 94.36,221.99 96.86,221.99 99.45,229.73 101.95,212.30 104.53,223.92 107.12,241.35 109.62,227.80 112.21,218.11 114.71,225.86 117.29,231.67 119.88,221.99 122.21,212.30 124.80,214.24 127.30,218.11 129.88,229.73 132.39,214.24 134.97,229.73 137.56,220.05 140.06,231.67 142.64,225.86 145.14,225.86 147.73,225.86 150.31,220.05 152.65,220.05 155.23,227.80 157.74,223.92 160.32,216.18 162.82,227.80 165.41,221.99 167.99,220.05 170.49,227.80 173.08,229.73 175.58,227.80 178.17,221.99 180.75,221.99 183.17,223.92 185.75,225.86 188.26,221.99 190.84,229.73 193.34,223.92 195.93,220.05 198.51,220.05 201.01,218.11 203.60,223.92 206.10,229.73 208.69,225.86 211.27,227.80 213.60,225.86 216.19,223.92 218.69,220.05 221.28,225.86 223.78,220.05 226.36,223.92 228.95,227.80 231.45,229.73 234.03,229.73 236.54,231.67 239.12,231.67 241.71,223.92 244.04,223.92 246.63,225.86 249.13,227.80 251.71,225.86 254.21,229.73 256.80,223.92 259.38,223.92 261.89,223.92 264.47,221.99 266.97,225.86 269.56,229.73 272.14,227.80 274.48,229.73 277.06,221.99 279.56,231.67 282.15,227.80 284.65,225.86 287.24,223.92 289.82,225.86 292.32,225.86 294.91,227.80 297.41,223.92 299.99,223.92 302.58,225.86 305.00,227.80 307.58,229.73 310.08,229.73 312.67,225.86 315.17,229.73 317.76,225.86 320.34,225.86 322.84,227.80 325.43,225.86 327.93,229.73 330.51,227.80 333.10,227.80 335.43,229.73 338.02,227.80 340.52,227.80 343.10,229.73 345.61,227.80 348.19,225.86 350.78,231.67 353.28,229.73 355.86,227.80 358.36,227.80 360.95,225.86 363.53,227.80 365.87,229.73 368.45,229.73 370.96,229.73 373.54,225.86 376.04,225.86 378.63,227.80 381.21,231.67 383.71,227.80 386.30,231.67 388.80,225.86 391.39,223.92 393.97,225.86 396.31,225.86 398.89,227.80 401.39,227.80 403.98,229.73 406.48,225.86 409.06,225.86 411.65,225.86 414.15,229.73 416.74,225.86 419.24,227.80 421.82,223.92 424.41,221.99 426.83,218.11 429.41,227.80 " />
  </g>
  <defs
     id="defs138">
    <clipPath
       id="cpMC4wMHw0NTMuNTR8MjgzLjQ2fDAuMDA=">
      <rect
         x="0"
         y="0"
         width="453.54001"
         height="283.45999"
         id="rect135" />
    </clipPath>
  </defs>
  <g
     style="fill:#98989f;fill-opacity:1"
     transform="matrix(0.85,0,0,0.85,-15.218888,30.722606)"
     clip-path="url(#cpMC4wMHw0NTMuNTR8MjgzLjQ2fDAuMDA=)"
     id="g142">
    <text
       x="27.860001"
       y="244.38"
       style="font-size:8.8px;font-family:'Liberation Sans';fill:#98989f;fill-opacity:1"
       textLength="4.8899999"
       lengthAdjust="spacingAndGlyphs"
       id="text140">0</text>
  </g>
  <g
     style="fill:#98989f;fill-opacity:1"
     transform="matrix(0.85,0,0,0.85,-15.580913,22.298606)"
     clip-path="url(#cpMC4wMHw0NTMuNTR8MjgzLjQ2fDAuMDA=)"
     id="g146">
    <text
       x="22.959999"
       y="188.22"
       style="font-size:8.8px;font-family:'Liberation Sans';fill:#98989f;fill-opacity:1"
       textLength="9.79"
       lengthAdjust="spacingAndGlyphs"
       id="text144">25</text>
  </g>
  <g
     style="fill:#98989f;fill-opacity:1"
     transform="matrix(0.85,0,0,0.85,-15.585744,13.874605)"
     clip-path="url(#cpMC4wMHw0NTMuNTR8MjgzLjQ2fDAuMDA=)"
     id="g150">
    <text
       x="22.959999"
       y="132.06"
       style="font-size:8.8px;font-family:'Liberation Sans';fill:#98989f;fill-opacity:1"
       textLength="9.79"
       lengthAdjust="spacingAndGlyphs"
       id="text148">50</text>
  </g>
  <g
     style="fill:#98989f;fill-opacity:1"
     transform="matrix(0.85,0,0,0.85,-15.580269,5.457373)"
     clip-path="url(#cpMC4wMHw0NTMuNTR8MjgzLjQ2fDAuMDA=)"
     id="g154">
    <text
       x="22.959999"
       y="75.900002"
       style="font-size:8.8px;font-family:'Liberation Sans';fill:#98989f;fill-opacity:1"
       textLength="9.79"
       lengthAdjust="spacingAndGlyphs"
       id="text152">75</text>
  </g>
  <g
     style="fill:#98989f;fill-opacity:1"
     transform="matrix(0.85,0,0,0.85,-15.928672,-2.9733946)"
     clip-path="url(#cpMC4wMHw0NTMuNTR8MjgzLjQ2fDAuMDA=)"
     id="g158">
    <text
       x="18.07"
       y="19.74"
       style="font-size:8.8px;font-family:'Liberation Sans';fill:#98989f;fill-opacity:1"
       textLength="14.68"
       lengthAdjust="spacingAndGlyphs"
       id="text156">100</text>
  </g>
  <g
     style="fill:#98989f;fill-opacity:1"
     transform="matrix(0.85,0,0,0.85,-15.30913,29.601107)"
     clip-path="url(#cpMC4wMHw0NTMuNTR8MjgzLjQ2fDAuMDA=)"
     id="g162">
    <text
       x="46.549999"
       y="263.57001"
       style="font-size:8.8px;font-family:'Liberation Sans';fill:#98989f;fill-opacity:1"
       textLength="19.58"
       lengthAdjust="spacingAndGlyphs"
       id="text160">2008</text>
  </g>
  <g
     style="fill:#98989f;fill-opacity:1"
     transform="matrix(0.85,0,0,0.85,-10.733706,29.601107)"
     clip-path="url(#cpMC4wMHw0NTMuNTR8MjgzLjQ2fDAuMDA=)"
     id="g166">
    <text
       x="77.07"
       y="263.57001"
       style="font-size:8.8px;font-family:'Liberation Sans';fill:#98989f;fill-opacity:1"
       textLength="19.58"
       lengthAdjust="spacingAndGlyphs"
       id="text164">2009</text>
  </g>
  <g
     style="fill:#98989f;fill-opacity:1"
     transform="matrix(0.85,0,0,0.85,-6.1637314,29.601107)"
     clip-path="url(#cpMC4wMHw0NTMuNTR8MjgzLjQ2fDAuMDA=)"
     id="g170">
    <text
       x="107.5"
       y="263.57001"
       style="font-size:8.8px;font-family:'Liberation Sans';fill:#98989f;fill-opacity:1"
       textLength="19.58"
       lengthAdjust="spacingAndGlyphs"
       id="text168">2010</text>
  </g>
  <g
     style="fill:#98989f;fill-opacity:1"
     transform="matrix(0.85,0,0,0.85,-1.6041714,29.601107)"
     clip-path="url(#cpMC4wMHw0NTMuNTR8MjgzLjQ2fDAuMDA=)"
     id="g174">
    <text
       x="137.94"
       y="263.57001"
       style="font-size:8.8px;font-family:'Liberation Sans';fill:#98989f;fill-opacity:1"
       textLength="19.58"
       lengthAdjust="spacingAndGlyphs"
       id="text172">2011</text>
  </g>
  <g
     style="fill:#98989f;fill-opacity:1"
     transform="matrix(0.85,0,0,0.85,2.9608626,29.601107)"
     clip-path="url(#cpMC4wMHw0NTMuNTR8MjgzLjQ2fDAuMDA=)"
     id="g178">
    <text
       x="168.38"
       y="263.57001"
       style="font-size:8.8px;font-family:'Liberation Sans';fill:#98989f;fill-opacity:1"
       textLength="19.58"
       lengthAdjust="spacingAndGlyphs"
       id="text176">2012</text>
  </g>
  <g
     style="fill:#98989f;fill-opacity:1"
     transform="matrix(0.85,0,0,0.85,7.5430476,29.601107)"
     clip-path="url(#cpMC4wMHw0NTMuNTR8MjgzLjQ2fDAuMDA=)"
     id="g182">
    <text
       x="198.89999"
       y="263.57001"
       style="font-size:8.8px;font-family:'Liberation Sans';fill:#98989f;fill-opacity:1"
       textLength="19.58"
       lengthAdjust="spacingAndGlyphs"
       id="text180">2013</text>
  </g>
  <g
     style="fill:#98989f;fill-opacity:1"
     transform="matrix(0.85,0,0,0.85,12.11721,29.601107)"
     clip-path="url(#cpMC4wMHw0NTMuNTR8MjgzLjQ2fDAuMDA=)"
     id="g186">
    <text
       x="229.33"
       y="263.57001"
       style="font-size:8.8px;font-family:'Liberation Sans';fill:#98989f;fill-opacity:1"
       textLength="19.58"
       lengthAdjust="spacingAndGlyphs"
       id="text184">2014</text>
  </g>
  <g
     style="fill:#98989f;fill-opacity:1"
     transform="matrix(0.85,0,0,0.85,16.674835,29.601107)"
     clip-path="url(#cpMC4wMHw0NTMuNTR8MjgzLjQ2fDAuMDA=)"
     id="g190">
    <text
       x="259.76999"
       y="263.57001"
       style="font-size:8.8px;font-family:'Liberation Sans';fill:#98989f;fill-opacity:1"
       textLength="19.58"
       lengthAdjust="spacingAndGlyphs"
       id="text188">2015</text>
  </g>
  <g
     style="fill:#98989f;fill-opacity:1"
     transform="matrix(0.85,0,0,0.85,21.239547,29.601107)"
     clip-path="url(#cpMC4wMHw0NTMuNTR8MjgzLjQ2fDAuMDA=)"
     id="g194">
    <text
       x="290.20999"
       y="263.57001"
       style="font-size:8.8px;font-family:'Liberation Sans';fill:#98989f;fill-opacity:1"
       textLength="19.58"
       lengthAdjust="spacingAndGlyphs"
       id="text192">2016</text>
  </g>
  <g
     style="fill:#98989f;fill-opacity:1"
     transform="matrix(0.85,0,0,0.85,25.813364,29.601107)"
     clip-path="url(#cpMC4wMHw0NTMuNTR8MjgzLjQ2fDAuMDA=)"
     id="g198">
    <text
       x="320.73001"
       y="263.57001"
       style="font-size:8.8px;font-family:'Liberation Sans';fill:#98989f;fill-opacity:1"
       textLength="19.58"
       lengthAdjust="spacingAndGlyphs"
       id="text196">2017</text>
  </g>
  <g
     style="fill:#98989f;fill-opacity:1"
     transform="matrix(0.85,0,0,0.85,30.382371,29.601107)"
     clip-path="url(#cpMC4wMHw0NTMuNTR8MjgzLjQ2fDAuMDA=)"
     id="g202">
    <text
       x="351.16"
       y="263.57001"
       style="font-size:8.8px;font-family:'Liberation Sans';fill:#98989f;fill-opacity:1"
       textLength="19.58"
       lengthAdjust="spacingAndGlyphs"
       id="text200">2018</text>
  </g>
  <g
     style="fill:#98989f;fill-opacity:1"
     transform="matrix(0.85,0,0,0.85,34.945795,29.601107)"
     clip-path="url(#cpMC4wMHw0NTMuNTR8MjgzLjQ2fDAuMDA=)"
     id="g206">
    <text
       x="381.60001"
       y="263.57001"
       style="font-size:8.8px;font-family:'Liberation Sans';fill:#98989f;fill-opacity:1"
       textLength="19.58"
       lengthAdjust="spacingAndGlyphs"
       id="text204">2019</text>
  </g>
  <g
     style="fill:#98989f;fill-opacity:1"
     transform="matrix(0.85,0,0,0.85,39.515769,29.601107)"
     clip-path="url(#cpMC4wMHw0NTMuNTR8MjgzLjQ2fDAuMDA=)"
     id="g210">
    <text
       x="412.03"
       y="263.57001"
       style="font-size:8.8px;font-family:'Liberation Sans';fill:#98989f;fill-opacity:1"
       textLength="19.58"
       lengthAdjust="spacingAndGlyphs"
       id="text208">2020</text>
  </g>
  <g
     transform="translate(-23.764316,-5.48)"
     clip-path="url(#cpMC4wMHw0NTMuNTR8MjgzLjQ2fDAuMDA=)"
     id="g218">
    <text
       transform="rotate(-90,82.505,69.455)"
       style="font-size:11px;font-family:'Liberation Sans'"
       textLength="45.849998"
       lengthAdjust="spacingAndGlyphs"
       id="text216" />
  </g>
</svg>
